<svg width="1432" height="524" viewBox="0 0 1432 524" fill="none" xmlns="http://www.w3.org/2000/svg">
<g clip-path="url(#clip0_1393_6122)">
<path d="M1440 0H0V524H1440V0Z" fill="#F8F5F1"/>
<path d="M1228.55 -801.616C1186.22 -763.022 1068.49 -655.318 974.595 -570.053C880.702 -484.787 751.962 -390.011 665.189 -290.021C578.415 -190.032 520.97 -62.3526 453.956 29.8832C386.941 122.119 361.075 166.277 263.1 263.393C165.126 360.509 -36.862 515.541 -133.892 612.578C-230.921 709.614 -288.213 806.772 -319.077 845.611L971.651 1303.41L2519.27 -343.819L1228.55 -801.616Z" fill="url(#paint0_linear_1393_6122)"/>
<path d="M1353.99 -749.817C1327.32 -706.132 1265.85 -564.14 1193.95 -487.706C1122.05 -411.273 1000.6 -358.554 922.602 -291.217C844.603 -223.879 794.286 -174.59 725.96 -83.6825C657.633 7.22535 583.942 162.362 512.646 254.23C441.349 346.099 380.497 394.951 298.179 467.527C215.86 540.104 98.9353 619.401 18.7355 689.69C-61.4643 759.98 -149.394 856.002 -183.02 889.265L982.262 1303.41L2519.27 -335.674L1353.99 -749.817Z" fill="url(#paint1_linear_1393_6122)"/>
<path d="M1472.97 -705.189C1440.33 -675.559 1335.73 -605.759 1277.13 -527.412C1218.53 -449.064 1184.97 -315.935 1121.37 -235.103C1057.77 -154.271 973.679 -95.7416 895.524 -42.4191C817.37 10.9034 704.308 31.6135 652.445 84.8317C600.581 138.05 629.039 200.6 584.342 276.89C539.646 353.18 473.015 471.055 384.268 542.573C295.52 614.091 125.983 641.215 51.8587 705.998C-22.2653 770.781 -41.7535 893.725 -60.476 931.27L985.827 1303.41L2519.27 -333.051L1472.97 -705.189Z" fill="url(#paint2_linear_1393_6122)"/>
<path d="M1594.69 -656.225C1555.19 -618.69 1433.33 -527.738 1357.68 -431.018C1282.03 -334.298 1218.55 -176.742 1140.8 -75.9052C1063.05 24.9315 1001.18 86.5816 891.183 174.002C781.186 261.423 589.103 358.53 480.823 448.62C372.542 538.709 309.94 626.994 241.502 714.539C173.063 802.084 98.7429 930.664 70.191 973.89L994.772 1303.41L2519.27 -326.706L1594.69 -656.225Z" fill="url(#paint3_linear_1393_6122)"/>
<path d="M1715.6 -607.159C1683.13 -565.124 1590.89 -432.396 1520.77 -354.946C1450.65 -277.497 1371.87 -224.38 1294.86 -142.462C1217.86 -60.5442 1150.49 55.1383 1058.76 136.562C967.029 217.986 805.09 279.319 744.474 346.08C683.858 412.84 749.623 466.05 695.063 537.126C640.502 608.203 499.441 692.683 417.109 772.538C334.776 852.392 237.076 975.634 201.07 1016.25L1004.75 1303.41L2519.27 -320.004L1715.6 -607.159Z" fill="url(#paint4_linear_1393_6122)"/>
<path d="M1835.87 -557.459C1805.45 -527.018 1718.33 -454.087 1653.38 -374.812C1588.43 -295.537 1537.44 -171.624 1446.19 -81.8075C1354.94 8.009 1190.2 82.6465 1105.86 164.086C1021.53 245.526 1008.31 331.234 940.181 406.832C872.048 482.431 744.028 550.607 697.063 617.677C650.098 684.746 719.019 735.794 658.389 809.25C597.758 882.705 387.463 1016.88 333.278 1058.41L1016.68 1303.41L2519.27 -312.461L1835.87 -557.459Z" fill="url(#paint5_linear_1393_6122)"/>
<path d="M1953.94 -509.313C1918.5 -460.722 1815.95 -286.431 1741.28 -217.766C1666.61 -149.101 1573.81 -156.863 1505.92 -97.322C1438.03 -37.7813 1393.73 55.5126 1333.95 139.478C1274.17 223.444 1227.79 321.127 1147.23 406.472C1066.67 491.817 931.943 579.521 850.591 651.549C769.24 723.577 723.838 763.89 659.119 838.641C594.4 913.393 495.084 1056.49 462.277 1100.06L1027.61 1303.41L2519.27 -305.964L1953.94 -509.313Z" fill="url(#paint6_linear_1393_6122)"/>
<path d="M2070.29 -461.974C2024.72 -429.063 1888.87 -358.372 1796.85 -264.512C1704.82 -170.653 1582.99 6.70213 1518.15 101.185C1453.32 195.668 1473.66 211.956 1407.84 302.385C1342.03 392.814 1202.68 551.729 1123.29 643.759C1043.9 735.789 1020.49 771.635 931.514 854.565C842.537 937.495 646.445 1093.54 589.431 1141.34L1038.41 1303.41L2519.27 -299.904L2070.29 -461.974Z" fill="url(#paint7_linear_1393_6122)"/>
<path d="M2186.8 -410.983C2129.19 -353.627 1952.43 -193.518 1841.14 -66.8478C1729.84 59.8224 1648.28 211.292 1519.03 349.039C1389.77 486.785 1198.02 620.707 1065.62 759.633C933.214 898.559 781.448 1112.1 724.615 1182.59L1057.09 1303.41L2519.27 -290.168L2186.8 -410.983Z" fill="url(#paint8_linear_1393_6122)"/>
<path d="M2300.34 -361.752C2245.18 -306.729 2056.04 -140.709 1969.37 -31.612C1882.71 77.4855 1867.01 196.134 1780.33 292.833C1693.65 389.532 1552.44 455.652 1449.31 548.583C1346.18 641.514 1260.44 737.969 1161.56 850.421C1062.68 962.874 906.943 1161.15 856.02 1223.3L1074.95 1303.41L2519.27 -281.642L2300.34 -361.752Z" fill="url(#paint9_linear_1393_6122)"/>
<path d="M2410.66 -316.575C2366.94 -278.704 2201.32 -156.735 2148.33 -89.3494C2095.35 -21.9635 2150.81 21.0593 2092.74 87.7403C2034.67 154.421 1856.68 249.043 1799.91 310.736C1743.14 372.43 1818.15 394.495 1752.12 457.902C1686.08 521.309 1469.98 609.957 1403.69 691.178C1337.39 772.4 1399.53 895.326 1354.36 945.231C1309.19 995.136 1195.46 937.568 1132.65 990.609C1069.85 1043.65 1003.38 1218 977.53 1263.48L1086.15 1303.41L2519.27 -276.648L2410.66 -316.575Z" fill="url(#paint10_linear_1393_6122)"/>
<g clip-path="url(#clip1_1393_6122)">
<path d="M69.7521 445.018C93.5401 445.018 112.824 425.75 112.824 401.98C112.824 378.211 93.5401 358.942 69.7521 358.942C45.9641 358.942 26.6802 378.211 26.6802 401.98C26.6802 425.75 45.9641 445.018 69.7521 445.018Z" fill="#67AA92"/>
<path d="M69.8702 401.98H69.9887L72.1188 524.001H67.6221L69.8702 401.98Z" fill="black"/>
<path d="M162.227 466.393C179.578 466.393 193.643 452.339 193.643 435.002C193.643 417.665 179.578 403.611 162.227 403.611C144.877 403.611 130.812 417.665 130.812 435.002C130.812 452.339 144.877 466.393 162.227 466.393Z" fill="#67AA92"/>
<path d="M162.313 435.002H162.4L163.953 524H160.673L162.313 435.002Z" fill="black"/>
<path d="M122.662 391.855C162.141 391.855 194.145 359.876 194.145 320.428C194.145 280.979 162.141 249 122.662 249C83.1821 249 51.1777 280.979 51.1777 320.428C51.1777 359.876 83.1821 391.855 122.662 391.855Z" fill="#67AA92"/>
<path opacity="0.1" d="M175.443 272.72C182.111 288.305 183.015 305.751 177.995 321.941C172.974 338.131 162.356 352.01 148.038 361.097C133.719 370.185 116.633 373.889 99.8329 371.548C83.0328 369.206 67.6132 360.972 56.3296 348.317C60.4028 357.838 66.4991 366.361 74.1961 373.295C81.8931 380.229 91.0068 385.408 100.906 388.473C110.805 391.538 121.252 392.416 131.524 391.046C141.797 389.676 151.648 386.091 160.396 380.539C169.144 374.987 176.579 367.601 182.186 358.893C187.794 350.184 191.44 340.362 192.871 330.106C194.302 319.85 193.485 309.406 190.476 299.497C187.466 289.588 182.337 280.451 175.443 272.72Z" fill="black"/>
<path d="M122.465 320.428H122.268L118.733 522.937H126.196L122.465 320.428Z" fill="#3F3D56"/>
<path d="M287.976 520.004H284.169L282.358 505.332H287.976L287.976 520.004Z" fill="#FFB6B6"/>
<path d="M288.946 523.691L276.671 523.691V523.536C276.671 522.269 277.175 521.055 278.071 520.16C278.967 519.265 280.182 518.762 281.449 518.762H281.449L288.946 518.762L288.946 523.691Z" fill="#2F2E41"/>
<path d="M305.628 520.004H301.821L300.01 505.332H305.629L305.628 520.004Z" fill="#FFB6B6"/>
<path d="M306.599 523.691L294.324 523.691V523.536C294.324 522.269 294.828 521.055 295.724 520.16C296.62 519.265 297.835 518.762 299.102 518.762H299.102L306.599 518.762L306.599 523.691Z" fill="#2F2E41"/>
<path d="M241.727 520.004H245.534L246.241 505.253L241.727 505.332L241.727 520.004Z" fill="#FFB6B6"/>
<path d="M240.756 518.762L248.253 518.762H248.254C249.521 518.762 250.736 519.265 251.632 520.16C252.528 521.055 253.031 522.269 253.031 523.535V523.691L240.757 523.691L240.756 518.762Z" fill="#2F2E41"/>
<path d="M226.338 520.004H230.145L230.899 505.253L226.337 505.332L226.338 520.004Z" fill="#FFB6B6"/>
<path d="M225.367 518.762L232.864 518.762H232.864C234.131 518.762 235.347 519.265 236.243 520.16C237.139 521.055 237.642 522.269 237.642 523.535V523.691L225.367 523.691L225.367 518.762Z" fill="#2F2E41"/>
<path d="M259.294 457.842C259.151 457.474 259.091 457.079 259.118 456.685C259.145 456.291 259.257 455.908 259.448 455.563C259.639 455.217 259.903 454.917 260.222 454.685C260.542 454.453 260.908 454.293 261.296 454.217L274.293 433.339L278.685 437.238L264.528 456.535C264.612 457.194 264.451 457.861 264.076 458.41C263.701 458.958 263.137 459.35 262.492 459.511C261.847 459.672 261.165 459.591 260.576 459.284C259.986 458.976 259.53 458.463 259.294 457.842Z" fill="#FFB6B6"/>
<path d="M318.696 465.569C318.335 465.41 318.013 465.173 317.753 464.876C317.493 464.579 317.302 464.228 317.192 463.849C317.083 463.47 317.058 463.071 317.119 462.681C317.18 462.291 317.326 461.92 317.547 461.592L311.962 437.646L317.828 437.3L321.473 460.947C321.999 461.354 322.357 461.939 322.48 462.592C322.603 463.245 322.481 463.921 322.139 464.491C321.797 465.06 321.258 465.485 320.623 465.684C319.988 465.882 319.303 465.842 318.696 465.569Z" fill="#FFB6B6"/>
<path d="M263.421 456.811C263.406 456.371 263.294 455.939 263.094 455.546C262.893 455.153 262.609 454.809 262.262 454.538C261.914 454.266 261.511 454.075 261.081 453.976C260.651 453.877 260.204 453.874 259.773 453.966L254.215 444.801L251.826 449.832L257.47 457.764C257.673 458.478 258.131 459.093 258.758 459.492C259.384 459.891 260.135 460.046 260.869 459.929C261.602 459.811 262.267 459.429 262.738 458.855C263.208 458.28 263.451 457.553 263.421 456.811Z" fill="#FFB6B6"/>
<path d="M216.975 466.398C217.234 466.042 217.412 465.633 217.496 465.2C217.58 464.767 217.568 464.321 217.461 463.893C217.354 463.466 217.155 463.067 216.876 462.725C216.598 462.382 216.248 462.105 215.851 461.913L217.113 451.271L212.132 453.768L211.698 463.491C211.418 464.179 211.401 464.945 211.649 465.645C211.897 466.345 212.394 466.929 213.044 467.287C213.695 467.646 214.454 467.753 215.179 467.589C215.903 467.425 216.542 467.002 216.975 466.398Z" fill="#FFB6B6"/>
<path d="M284.958 455.617L283.343 458.894L282.072 514.571L290.378 515.179L298.173 474.345L300.052 514.571L306.883 514.637L314.272 459.776L284.958 455.617Z" fill="#2F2E41"/>
<path d="M243.96 455.617L246.655 457.213C246.655 457.213 248.846 458.606 248.109 468.297C247.373 477.988 246.492 516.813 246.492 516.813H241.714L233.975 470.434L231.151 517.316L226.121 517.064C226.121 517.064 215.845 463.689 220.291 457.897L243.96 455.617Z" fill="#2F2E41"/>
<path d="M284.367 415.521L293.441 412.495L304.582 412.658L312.162 415.682L314.272 459.777C314.272 459.777 297.686 469.705 283.343 458.895L284.367 415.521Z" fill="#E4E4E4"/>
<path d="M284.367 415.132C284.367 415.132 280.788 414.713 278.793 420.65C276.797 426.587 271.521 434.618 271.521 434.618L277.292 440.026L288.836 424.029L284.367 415.132Z" fill="#E4E4E4"/>
<path d="M309.347 416.515L312.162 415.682C312.162 415.682 318.54 416.531 318.794 423.386C319.049 430.242 320.254 440.971 320.254 440.971L313.75 442.266L309.347 416.515Z" fill="#E4E4E4"/>
<path d="M218.664 421.323C218.664 421.323 231.774 417.112 242.351 421.038L241.485 441.424L248.009 457.327C248.009 457.327 227.267 465.366 220.355 458.61L222.371 442.681L218.664 421.323Z" fill="#E6C0C7"/>
<path d="M238.827 423.432L241.574 421.038C241.574 421.038 243.406 421.016 244.983 423.833C246.56 426.651 249.417 435.744 249.417 435.744L258.564 451.225L254.54 453.989L240.033 433.717L238.827 423.432Z" fill="#E6C0C7"/>
<path d="M219.151 422.328L219.338 421.051C219.338 421.051 214.23 421.428 213.798 426.346C213.366 431.264 211.786 459.015 211.786 459.015L216.839 460.02L221.865 431.538L219.151 422.328Z" fill="#E6C0C7"/>
<path d="M299.737 408.433C304.419 408.433 308.215 404.64 308.215 399.962C308.215 395.284 304.419 391.491 299.737 391.491C295.055 391.491 291.26 395.284 291.26 399.962C291.26 404.64 295.055 408.433 299.737 408.433Z" fill="#FFB6B6"/>
<path d="M236.859 413.955L221.534 416.97C221.219 417.032 220.892 416.966 220.625 416.787C220.358 416.609 220.173 416.331 220.111 416.016L218.81 409.416C218.581 408.255 218.584 407.059 218.817 405.899C219.05 404.738 219.51 403.635 220.17 402.652C221.503 400.667 223.571 399.292 225.918 398.83C228.266 398.368 230.701 398.857 232.688 400.189C234.675 401.521 236.05 403.587 236.513 405.933L237.813 412.533C237.875 412.848 237.809 413.175 237.63 413.441C237.451 413.708 237.174 413.893 236.859 413.955Z" fill="#2F2E41"/>
<path d="M229.707 415.075C233.36 415.075 236.321 412.116 236.321 408.466C236.321 404.816 233.36 401.857 229.707 401.857C226.054 401.857 223.093 404.816 223.093 408.466C223.093 412.116 226.054 415.075 229.707 415.075Z" fill="#FFB6B6"/>
<path d="M238.737 406.18L229.366 408.024L229.005 406.699L228.79 408.138L227.347 408.422L226.631 405.795L226.204 408.646L223.412 409.196L223.386 409.064C223.023 407.208 223.41 405.285 224.465 403.715C225.519 402.145 227.153 401.057 229.009 400.69L230.33 400.43C232.187 400.067 234.112 400.454 235.683 401.508C237.254 402.561 238.343 404.194 238.711 406.048L238.737 406.18Z" fill="#2F2E41"/>
<path d="M230.937 416.399C230.867 416.413 230.795 416.421 230.723 416.422L223.623 416.563L221.39 405.231L228.944 403.745L228.799 404C226.795 407.544 229.724 412.074 231.649 414.46C231.79 414.634 231.879 414.845 231.906 415.068C231.933 415.291 231.896 415.518 231.8 415.721C231.72 415.894 231.601 416.046 231.451 416.164C231.301 416.282 231.125 416.363 230.937 416.399Z" fill="#2F2E41"/>
<path d="M291.488 392.326C292.524 392.007 293.644 392.165 294.702 392.401L294.601 392.658C297.127 391.195 300.134 390.386 303 390.946C305.866 391.507 308.507 393.617 309.2 396.451C309.452 397.584 309.468 398.756 309.246 399.895C308.943 401.568 308.29 403.159 307.33 404.562C306.37 405.966 305.124 407.152 303.674 408.041C303.311 408.261 302.751 408.418 302.537 408.052C302.293 407.636 302.843 407.214 303.007 406.761C303.186 406.265 302.86 405.715 302.436 405.402C302.012 405.088 301.494 404.925 301.051 404.64C300.608 404.32 300.237 403.912 299.961 403.441C299.685 402.97 299.51 402.447 299.447 401.905C299.328 400.822 299.361 399.727 299.546 398.653C297.843 399.276 296.05 399.62 294.236 399.673C293.594 399.732 292.948 399.63 292.355 399.376C291.594 398.988 291.135 398.201 290.718 397.456C290.543 397.144 290.369 396.832 290.194 396.52C289.817 395.961 289.589 395.316 289.53 394.645C289.531 393.562 290.452 392.645 291.488 392.326Z" fill="#2F2E41"/>
</g>
</g>
<defs>
<linearGradient id="paint0_linear_1393_6122" x1="1301.21" y1="-775.842" x2="256.36" y2="1166.62" gradientUnits="userSpaceOnUse">
<stop stop-color="#F8F4F1"/>
</linearGradient>
<linearGradient id="paint1_linear_1393_6122" x1="1460.81" y1="-711.855" x2="369.298" y2="1205.93" gradientUnits="userSpaceOnUse">
<stop stop-color="#F8F1F1"/>
<stop offset="0.0909091" stop-color="#F8F1F2"/>
</linearGradient>
<linearGradient id="paint2_linear_1393_6122" x1="1510.07" y1="-691.993" x2="401.149" y2="1216.42" gradientUnits="userSpaceOnUse">
<stop stop-color="#F8F1F5"/>
<stop offset="0.181818" stop-color="#F8F1F6"/>
</linearGradient>
<linearGradient id="paint3_linear_1393_6122" x1="1625.15" y1="-645.368" x2="468.192" y2="1236.39" gradientUnits="userSpaceOnUse">
<stop stop-color="#F8F1F8"/>
<stop offset="0.272727" stop-color="#F7F1F8"/>
</linearGradient>
<linearGradient id="paint4_linear_1393_6122" x1="1740.72" y1="-598.181" x2="521.875" y2="1246.8" gradientUnits="userSpaceOnUse">
<stop stop-color="#F4F1F8"/>
<stop offset="0.363636" stop-color="#F3F1F8"/>
</linearGradient>
<linearGradient id="paint5_linear_1393_6122" x1="1863.84" y1="-547.432" x2="557.457" y2="1239.06" gradientUnits="userSpaceOnUse">
<stop stop-color="#F1F2F8"/>
<stop offset="0.454545" stop-color="#F1F3F8"/>
</linearGradient>
<linearGradient id="paint6_linear_1393_6122" x1="1964.23" y1="-505.611" x2="562.946" y2="1206.05" gradientUnits="userSpaceOnUse">
<stop stop-color="#F1F6F8"/>
<stop offset="0.545455" stop-color="#F1F7F8"/>
</linearGradient>
<linearGradient id="paint7_linear_1393_6122" x1="2053.41" y1="-468.067" x2="544.089" y2="1138.45" gradientUnits="userSpaceOnUse">
<stop stop-color="#F1F8F6"/>
<stop offset="0.636364" stop-color="#F1F8F5"/>
</linearGradient>
<linearGradient id="paint8_linear_1393_6122" x1="2188.01" y1="-410.544" x2="474.577" y2="886.344" gradientUnits="userSpaceOnUse">
<stop stop-color="#F1F8F2"/>
<stop offset="0.727273" stop-color="#F1F8F1"/>
</linearGradient>
<linearGradient id="paint9_linear_1393_6122" x1="2297.49" y1="-362.794" x2="486.733" y2="379.863" gradientUnits="userSpaceOnUse">
<stop stop-color="#F3F8F1"/>
<stop offset="0.818182" stop-color="#F4F8F1"/>
</linearGradient>
<linearGradient id="paint10_linear_1393_6122" x1="2358.1" y1="-335.896" x2="697.996" y2="-70.5851" gradientUnits="userSpaceOnUse">
<stop stop-color="#F7F8F1"/>
<stop offset="0.909091" stop-color="#F8F8F1"/>
</linearGradient>
<clipPath id="clip0_1393_6122">
<rect width="1440" height="524" fill="white"/>
</clipPath>
<clipPath id="clip1_1393_6122">
<rect width="319" height="275" fill="white" transform="translate(25 249)"/>
</clipPath>
</defs>
</svg>
