<svg width="1440" height="524" viewBox="0 0 1440 524" fill="none" xmlns="http://www.w3.org/2000/svg">
<g clip-path="url(#clip0_1393_6627)">
<path d="M1440 0H0V524H1440V0Z" fill="#F8F5F1"/>
<path d="M1228.55 -801.615C1186.22 -763.021 1068.49 -655.317 974.595 -570.052C880.702 -484.786 751.962 -390.01 665.189 -290.02C578.415 -190.031 520.97 -62.3516 453.956 29.8841C386.941 122.12 361.075 166.278 263.1 263.394C165.126 360.51 -36.862 515.542 -133.892 612.578C-230.921 709.615 -288.213 806.773 -319.077 845.612L971.651 1303.41L2519.27 -343.818L1228.55 -801.615Z" fill="url(#paint0_linear_1393_6627)"/>
<path d="M1353.99 -749.815C1327.32 -706.13 1265.85 -564.138 1193.95 -487.704C1122.05 -411.271 1000.6 -358.552 922.602 -291.215C844.603 -223.877 794.286 -174.588 725.96 -83.6805C657.633 7.22731 583.942 162.364 512.646 254.232C441.349 346.101 380.497 394.953 298.179 467.529C215.86 540.106 98.9353 619.403 18.7355 689.692C-61.4643 759.982 -149.394 856.004 -183.02 889.267L982.262 1303.41L2519.27 -335.672L1353.99 -749.815Z" fill="url(#paint1_linear_1393_6627)"/>
<path d="M1472.97 -705.188C1440.33 -675.558 1335.73 -605.758 1277.13 -527.411C1218.53 -449.063 1184.97 -315.934 1121.37 -235.102C1057.77 -154.27 973.68 -95.7406 895.525 -42.4181C817.371 10.9044 704.309 31.6145 652.446 84.8327C600.582 138.051 629.04 200.601 584.343 276.891C539.647 353.181 473.016 471.055 384.269 542.574C295.521 614.092 125.984 641.216 51.8597 705.999C-22.2643 770.782 -41.7525 893.726 -60.475 931.271L985.827 1303.41L2519.27 -333.05L1472.97 -705.188Z" fill="url(#paint2_linear_1393_6627)"/>
<path d="M1594.69 -656.224C1555.19 -618.689 1433.33 -527.737 1357.68 -431.017C1282.03 -334.297 1218.55 -176.741 1140.8 -75.9043C1063.05 24.9324 1001.18 86.5826 891.183 174.003C781.186 261.424 589.103 358.531 480.823 448.621C372.542 538.71 309.94 626.995 241.502 714.54C173.063 802.085 98.7429 930.665 70.191 973.89L994.772 1303.41L2519.27 -326.705L1594.69 -656.224Z" fill="url(#paint3_linear_1393_6627)"/>
<path d="M1715.6 -607.158C1683.13 -565.123 1590.89 -432.395 1520.77 -354.945C1450.65 -277.496 1371.87 -224.379 1294.86 -142.461C1217.86 -60.5432 1150.49 55.1393 1058.76 136.563C967.029 217.987 805.09 279.32 744.474 346.081C683.858 412.841 749.623 466.051 695.063 537.127C640.502 608.204 499.441 692.684 417.109 772.539C334.776 852.393 237.076 975.635 201.07 1016.25L1004.75 1303.41L2519.27 -320.003L1715.6 -607.158Z" fill="url(#paint4_linear_1393_6627)"/>
<path d="M1835.87 -557.457C1805.45 -527.016 1718.33 -454.085 1653.38 -374.81C1588.43 -295.535 1537.44 -171.622 1446.19 -81.8055C1354.94 8.01096 1190.2 82.6485 1105.86 164.088C1021.53 245.528 1008.31 331.236 940.181 406.834C872.048 482.433 744.028 550.609 697.063 617.679C650.098 684.748 719.019 735.796 658.389 809.252C597.758 882.707 387.463 1016.89 333.278 1058.41L1016.68 1303.41L2519.27 -312.459L1835.87 -557.457Z" fill="url(#paint5_linear_1393_6627)"/>
<path d="M1953.94 -509.312C1918.5 -460.721 1815.95 -286.43 1741.28 -217.765C1666.61 -149.1 1573.81 -156.862 1505.92 -97.321C1438.03 -37.7803 1393.73 55.5135 1333.95 139.479C1274.17 223.445 1227.79 321.128 1147.23 406.473C1066.67 491.818 931.943 579.522 850.591 651.55C769.24 723.578 723.838 763.891 659.119 838.642C594.4 913.394 495.084 1056.49 462.277 1100.06L1027.61 1303.41L2519.27 -305.963L1953.94 -509.312Z" fill="url(#paint6_linear_1393_6627)"/>
<path d="M2070.3 -461.972C2024.72 -429.061 1888.87 -358.37 1796.85 -264.51C1704.83 -170.651 1582.99 6.70408 1518.15 101.187C1453.32 195.67 1473.66 211.958 1407.85 302.387C1342.04 392.816 1202.68 551.731 1123.29 643.761C1043.9 735.791 1020.49 771.637 931.515 854.567C842.538 937.497 646.446 1093.55 589.432 1141.34L1038.41 1303.41L2519.27 -299.902L2070.3 -461.972Z" fill="url(#paint7_linear_1393_6627)"/>
<path d="M2186.8 -410.983C2129.19 -353.627 1952.43 -193.518 1841.14 -66.8478C1729.84 59.8224 1648.28 211.292 1519.03 349.039C1389.77 486.785 1198.02 620.707 1065.62 759.633C933.214 898.559 781.448 1112.1 724.615 1182.59L1057.09 1303.41L2519.27 -290.168L2186.8 -410.983Z" fill="url(#paint8_linear_1393_6627)"/>
<path d="M2300.34 -361.751C2245.18 -306.728 2056.04 -140.709 1969.37 -31.611C1882.71 77.4865 1867.01 196.135 1780.33 292.834C1693.65 389.533 1552.44 455.653 1449.31 548.584C1346.18 641.515 1260.44 737.97 1161.56 850.422C1062.68 962.875 906.943 1161.15 856.02 1223.3L1074.95 1303.41L2519.27 -281.641L2300.34 -361.751Z" fill="url(#paint9_linear_1393_6627)"/>
<path d="M2410.66 -316.574C2366.94 -278.703 2201.32 -156.734 2148.33 -89.3484C2095.35 -21.9625 2150.81 21.0603 2092.74 87.7413C2034.67 154.422 1856.68 249.044 1799.91 310.737C1743.14 372.431 1818.15 394.496 1752.12 457.903C1686.08 521.31 1469.98 609.958 1403.69 691.179C1337.39 772.401 1399.53 895.327 1354.36 945.232C1309.19 995.137 1195.46 937.569 1132.65 990.61C1069.85 1043.65 1003.38 1218 977.53 1263.48L1086.15 1303.41L2519.27 -276.647L2410.66 -316.574Z" fill="url(#paint10_linear_1393_6627)"/>
<path d="M179.284 82.9713C128.05 80.6107 29.8807 103.91 0 108.098V-1H1440V60.5V108.098C1406.87 105.061 1299.92 95.6021 1241.22 89.8781C1182.53 84.1542 1140.32 69.4265 1087.82 73.754C1035.32 78.0815 983.081 107.111 926.209 115.843C869.337 124.575 816.302 131.443 746.591 126.145C676.88 120.848 581.141 84.7064 507.943 84.0591C434.745 83.4117 362.182 122.443 307.405 122.261C252.629 122.08 230.519 85.3319 179.284 82.9713Z" fill="white"/>
<g clip-path="url(#clip1_1393_6627)">
<path d="M69.7516 445.018C93.5396 445.018 112.824 425.75 112.824 401.98C112.824 378.211 93.5396 358.942 69.7516 358.942C45.9636 358.942 26.6797 378.211 26.6797 401.98C26.6797 425.75 45.9636 445.018 69.7516 445.018Z" fill="#67AA92"/>
<path d="M69.8702 401.98H69.9887L72.1188 524.001H67.6221L69.8702 401.98Z" fill="black"/>
<path d="M162.227 466.393C179.577 466.393 193.642 452.339 193.642 435.002C193.642 417.665 179.577 403.611 162.227 403.611C144.877 403.611 130.812 417.665 130.812 435.002C130.812 452.339 144.877 466.393 162.227 466.393Z" fill="#67AA92"/>
<path d="M162.314 435.002H162.4L163.954 524H160.674L162.314 435.002Z" fill="black"/>
<path d="M122.662 391.855C162.141 391.855 194.145 359.876 194.145 320.428C194.145 280.979 162.141 249 122.662 249C83.1821 249 51.1777 280.979 51.1777 320.428C51.1777 359.876 83.1821 391.855 122.662 391.855Z" fill="#67AA92"/>
<path opacity="0.1" d="M175.443 272.72C182.111 288.305 183.016 305.751 177.995 321.941C172.975 338.131 162.357 352.01 148.038 361.097C133.719 370.185 116.634 373.889 99.8334 371.548C83.0333 369.206 67.6137 360.972 56.3301 348.317C60.4033 357.838 66.4996 366.361 74.1966 373.295C81.8936 380.229 91.0073 385.408 100.906 388.473C110.805 391.538 121.253 392.416 131.525 391.046C141.797 389.676 151.648 386.091 160.396 380.539C169.144 374.987 176.579 367.601 182.187 358.893C187.795 350.184 191.44 340.362 192.872 330.106C194.303 319.85 193.485 309.406 190.476 299.497C187.467 289.588 182.337 280.451 175.443 272.72Z" fill="black"/>
<path d="M122.465 320.428H122.268L118.733 522.937H126.196L122.465 320.428Z" fill="#3F3D56"/>
<path d="M287.975 520.004H284.168L282.357 505.332H287.976L287.975 520.004Z" fill="#FFB6B6"/>
<path d="M288.947 523.691L276.672 523.691V523.536C276.672 522.269 277.175 521.055 278.071 520.16C278.967 519.265 280.182 518.762 281.449 518.762H281.45L288.947 518.762L288.947 523.691Z" fill="#2F2E41"/>
<path d="M305.628 520.004H301.821L300.01 505.332H305.628L305.628 520.004Z" fill="#FFB6B6"/>
<path d="M306.599 523.691L294.324 523.691V523.536C294.324 522.269 294.828 521.055 295.724 520.16C296.62 519.265 297.835 518.762 299.102 518.762H299.102L306.599 518.762L306.599 523.691Z" fill="#2F2E41"/>
<path d="M241.727 520.004H245.534L246.24 505.253L241.727 505.332L241.727 520.004Z" fill="#FFB6B6"/>
<path d="M240.757 518.762L248.254 518.762H248.254C249.521 518.762 250.736 519.265 251.632 520.16C252.528 521.055 253.032 522.269 253.032 523.535V523.691L240.757 523.691L240.757 518.762Z" fill="#2F2E41"/>
<path d="M226.339 520.004H230.145L230.9 505.253L226.338 505.332L226.339 520.004Z" fill="#FFB6B6"/>
<path d="M225.367 518.762L232.864 518.762H232.864C234.131 518.762 235.347 519.265 236.243 520.16C237.139 521.055 237.642 522.269 237.642 523.535V523.691L225.367 523.691L225.367 518.762Z" fill="#2F2E41"/>
<path d="M259.295 457.842C259.152 457.474 259.092 457.079 259.118 456.685C259.145 456.291 259.258 455.908 259.449 455.563C259.639 455.217 259.904 454.917 260.223 454.685C260.542 454.453 260.908 454.293 261.296 454.217L274.293 433.339L278.686 437.238L264.529 456.535C264.613 457.194 264.452 457.861 264.077 458.41C263.701 458.958 263.138 459.35 262.492 459.511C261.847 459.672 261.165 459.591 260.576 459.284C259.987 458.976 259.531 458.463 259.295 457.842Z" fill="#FFB6B6"/>
<path d="M318.697 465.569C318.336 465.41 318.014 465.173 317.754 464.876C317.494 464.579 317.303 464.228 317.193 463.849C317.083 463.47 317.058 463.071 317.119 462.681C317.181 462.291 317.327 461.92 317.547 461.592L311.963 437.646L317.828 437.3L321.473 460.947C321.999 461.354 322.357 461.939 322.48 462.592C322.603 463.245 322.482 463.921 322.14 464.491C321.798 465.06 321.258 465.485 320.623 465.684C319.989 465.882 319.303 465.842 318.697 465.569Z" fill="#FFB6B6"/>
<path d="M263.421 456.811C263.406 456.371 263.294 455.939 263.094 455.546C262.894 455.153 262.61 454.809 262.262 454.538C261.914 454.266 261.511 454.075 261.081 453.976C260.651 453.877 260.205 453.874 259.773 453.966L254.215 444.801L251.826 449.832L257.471 457.764C257.674 458.478 258.132 459.093 258.758 459.492C259.385 459.891 260.136 460.046 260.869 459.929C261.603 459.811 262.268 459.429 262.738 458.855C263.208 458.28 263.451 457.553 263.421 456.811Z" fill="#FFB6B6"/>
<path d="M216.975 466.398C217.234 466.042 217.412 465.633 217.496 465.2C217.58 464.767 217.568 464.321 217.461 463.893C217.354 463.466 217.155 463.067 216.876 462.725C216.598 462.382 216.248 462.105 215.851 461.913L217.113 451.271L212.132 453.768L211.698 463.491C211.418 464.179 211.401 464.945 211.649 465.645C211.897 466.345 212.394 466.929 213.044 467.287C213.695 467.646 214.454 467.753 215.179 467.589C215.903 467.425 216.542 467.002 216.975 466.398Z" fill="#FFB6B6"/>
<path d="M284.958 455.617L283.344 458.894L282.072 514.571L290.378 515.179L298.173 474.345L300.053 514.571L306.884 514.637L314.273 459.776L284.958 455.617Z" fill="#2F2E41"/>
<path d="M243.96 455.617L246.656 457.213C246.656 457.213 248.846 458.606 248.11 468.297C247.373 477.988 246.493 516.813 246.493 516.813H241.714L233.975 470.434L231.152 517.316L226.122 517.064C226.122 517.064 215.845 463.689 220.292 457.897L243.96 455.617Z" fill="#2F2E41"/>
<path d="M284.368 415.521L293.441 412.495L304.582 412.658L312.163 415.682L314.273 459.777C314.273 459.777 297.686 469.705 283.344 458.895L284.368 415.521Z" fill="#E4E4E4"/>
<path d="M284.367 415.132C284.367 415.132 280.787 414.713 278.792 420.65C276.797 426.587 271.521 434.618 271.521 434.618L277.292 440.026L288.835 424.029L284.367 415.132Z" fill="#E4E4E4"/>
<path d="M309.347 416.515L312.162 415.682C312.162 415.682 318.54 416.531 318.794 423.386C319.049 430.242 320.254 440.971 320.254 440.971L313.75 442.266L309.347 416.515Z" fill="#E4E4E4"/>
<path d="M218.664 421.323C218.664 421.323 231.774 417.112 242.351 421.038L241.485 441.424L248.009 457.327C248.009 457.327 227.267 465.366 220.355 458.61L222.371 442.681L218.664 421.323Z" fill="#E6C0C7"/>
<path d="M238.826 423.432L241.573 421.038C241.573 421.038 243.406 421.016 244.983 423.833C246.56 426.651 249.417 435.744 249.417 435.744L258.564 451.225L254.54 453.989L240.033 433.717L238.826 423.432Z" fill="#E6C0C7"/>
<path d="M219.151 422.328L219.338 421.051C219.338 421.051 214.23 421.428 213.798 426.346C213.366 431.264 211.786 459.015 211.786 459.015L216.839 460.02L221.865 431.538L219.151 422.328Z" fill="#E6C0C7"/>
<path d="M299.737 408.433C304.419 408.433 308.215 404.64 308.215 399.962C308.215 395.284 304.419 391.491 299.737 391.491C295.055 391.491 291.26 395.284 291.26 399.962C291.26 404.64 295.055 408.433 299.737 408.433Z" fill="#FFB6B6"/>
<path d="M236.859 413.955L221.534 416.97C221.219 417.032 220.892 416.966 220.625 416.787C220.359 416.609 220.174 416.331 220.111 416.016L218.811 409.416C218.582 408.255 218.584 407.059 218.817 405.899C219.051 404.738 219.511 403.635 220.171 402.652C221.504 400.667 223.571 399.292 225.919 398.83C228.266 398.368 230.701 398.857 232.688 400.189C234.675 401.521 236.051 403.587 236.513 405.933L237.814 412.533C237.876 412.848 237.81 413.175 237.631 413.441C237.452 413.708 237.174 413.893 236.859 413.955Z" fill="#2F2E41"/>
<path d="M229.707 415.075C233.36 415.075 236.321 412.116 236.321 408.466C236.321 404.816 233.36 401.857 229.707 401.857C226.054 401.857 223.093 404.816 223.093 408.466C223.093 412.116 226.054 415.075 229.707 415.075Z" fill="#FFB6B6"/>
<path d="M238.737 406.18L229.366 408.024L229.005 406.699L228.79 408.138L227.347 408.422L226.631 405.795L226.204 408.646L223.412 409.196L223.386 409.064C223.023 407.208 223.41 405.285 224.465 403.715C225.519 402.145 227.153 401.057 229.009 400.69L230.33 400.43C232.187 400.067 234.112 400.454 235.683 401.508C237.254 402.561 238.343 404.194 238.711 406.048L238.737 406.18Z" fill="#2F2E41"/>
<path d="M230.937 416.399C230.866 416.413 230.795 416.421 230.723 416.422L223.623 416.563L221.39 405.231L228.943 403.745L228.799 404C226.795 407.544 229.724 412.074 231.648 414.46C231.79 414.634 231.879 414.845 231.906 415.068C231.933 415.291 231.896 415.518 231.8 415.721C231.72 415.894 231.6 416.046 231.45 416.164C231.3 416.282 231.124 416.363 230.937 416.399Z" fill="#2F2E41"/>
<path d="M291.488 392.326C292.524 392.007 293.644 392.165 294.702 392.401L294.601 392.658C297.127 391.195 300.134 390.386 303 390.946C305.866 391.507 308.507 393.617 309.2 396.451C309.452 397.584 309.468 398.756 309.246 399.895C308.943 401.568 308.29 403.159 307.33 404.562C306.37 405.966 305.124 407.152 303.674 408.041C303.311 408.261 302.751 408.418 302.537 408.052C302.293 407.636 302.843 407.214 303.007 406.761C303.186 406.265 302.86 405.715 302.436 405.402C302.012 405.088 301.494 404.925 301.051 404.64C300.608 404.32 300.237 403.912 299.961 403.441C299.685 402.97 299.51 402.447 299.447 401.905C299.328 400.822 299.361 399.727 299.546 398.653C297.843 399.276 296.05 399.62 294.236 399.673C293.594 399.732 292.948 399.63 292.355 399.376C291.594 398.988 291.135 398.201 290.718 397.456C290.543 397.144 290.369 396.832 290.194 396.52C289.817 395.961 289.589 395.316 289.53 394.645C289.531 393.562 290.452 392.645 291.488 392.326Z" fill="#2F2E41"/>
</g>
</g>
<defs>
<linearGradient id="paint0_linear_1393_6627" x1="1301.21" y1="-775.841" x2="256.36" y2="1166.62" gradientUnits="userSpaceOnUse">
<stop stop-color="#F8F4F1"/>
</linearGradient>
<linearGradient id="paint1_linear_1393_6627" x1="1460.81" y1="-711.853" x2="369.298" y2="1205.93" gradientUnits="userSpaceOnUse">
<stop stop-color="#F8F1F1"/>
<stop offset="0.0909091" stop-color="#F8F1F2"/>
</linearGradient>
<linearGradient id="paint2_linear_1393_6627" x1="1510.07" y1="-691.992" x2="401.15" y2="1216.42" gradientUnits="userSpaceOnUse">
<stop stop-color="#F8F1F5"/>
<stop offset="0.181818" stop-color="#F8F1F6"/>
</linearGradient>
<linearGradient id="paint3_linear_1393_6627" x1="1625.15" y1="-645.367" x2="468.192" y2="1236.39" gradientUnits="userSpaceOnUse">
<stop stop-color="#F8F1F8"/>
<stop offset="0.272727" stop-color="#F7F1F8"/>
</linearGradient>
<linearGradient id="paint4_linear_1393_6627" x1="1740.72" y1="-598.18" x2="521.875" y2="1246.81" gradientUnits="userSpaceOnUse">
<stop stop-color="#F4F1F8"/>
<stop offset="0.363636" stop-color="#F3F1F8"/>
</linearGradient>
<linearGradient id="paint5_linear_1393_6627" x1="1863.84" y1="-547.43" x2="557.457" y2="1239.07" gradientUnits="userSpaceOnUse">
<stop stop-color="#F1F2F8"/>
<stop offset="0.454545" stop-color="#F1F3F8"/>
</linearGradient>
<linearGradient id="paint6_linear_1393_6627" x1="1964.23" y1="-505.61" x2="562.946" y2="1206.05" gradientUnits="userSpaceOnUse">
<stop stop-color="#F1F6F8"/>
<stop offset="0.545455" stop-color="#F1F7F8"/>
</linearGradient>
<linearGradient id="paint7_linear_1393_6627" x1="2053.41" y1="-468.065" x2="544.09" y2="1138.45" gradientUnits="userSpaceOnUse">
<stop stop-color="#F1F8F6"/>
<stop offset="0.636364" stop-color="#F1F8F5"/>
</linearGradient>
<linearGradient id="paint8_linear_1393_6627" x1="2188.01" y1="-410.544" x2="474.577" y2="886.344" gradientUnits="userSpaceOnUse">
<stop stop-color="#F1F8F2"/>
<stop offset="0.727273" stop-color="#F1F8F1"/>
</linearGradient>
<linearGradient id="paint9_linear_1393_6627" x1="2297.49" y1="-362.793" x2="486.733" y2="379.864" gradientUnits="userSpaceOnUse">
<stop stop-color="#F3F8F1"/>
<stop offset="0.818182" stop-color="#F4F8F1"/>
</linearGradient>
<linearGradient id="paint10_linear_1393_6627" x1="2358.1" y1="-335.895" x2="697.996" y2="-70.5841" gradientUnits="userSpaceOnUse">
<stop stop-color="#F7F8F1"/>
<stop offset="0.909091" stop-color="#F8F8F1"/>
</linearGradient>
<clipPath id="clip0_1393_6627">
<rect width="1440" height="524" fill="white"/>
</clipPath>
<clipPath id="clip1_1393_6627">
<rect width="319" height="275" fill="white" transform="translate(25 249)"/>
</clipPath>
</defs>
</svg>
