<svg width="142" height="48" viewBox="0 0 142 48" fill="none" xmlns="http://www.w3.org/2000/svg">
<path d="M13.532 25.6111C15.0976 25.9093 16.4024 26.6797 17.4462 27.9223C18.4899 29.1401 19.0118 30.5815 19.0118 32.2466C19.0118 34.3093 18.3036 35.9993 16.887 37.3164C15.4704 38.6087 13.4077 39.2549 10.6988 39.2549H3.16864V13.0111H10.6988C13.3083 13.0111 15.2467 13.6075 16.5142 14.8004C17.7817 15.9685 18.4154 17.5093 18.4154 19.4229C18.4154 21.1626 17.9432 22.5543 16.9988 23.5981C16.0793 24.6419 14.9237 25.3129 13.532 25.6111ZM3.9142 25.2383H10.9225C13.1095 25.2383 14.7746 24.7288 15.9178 23.7099C17.0858 22.6661 17.6698 21.2371 17.6698 19.4229C17.6698 17.6833 17.0982 16.304 15.955 15.2851C14.8118 14.2661 13.0598 13.7567 10.6988 13.7567H3.9142V25.2383ZM10.6988 38.5093C13.0846 38.5093 14.9361 37.9501 16.2533 36.8318C17.5953 35.7135 18.2663 34.1851 18.2663 32.2466C18.2663 30.333 17.5828 28.817 16.216 27.6987C14.8491 26.5555 12.9852 25.9839 10.6243 25.9839H3.9142V38.5093H10.6988ZM35.6219 39.5531C33.2112 39.5531 31.0491 38.9939 29.1355 37.8756C27.2467 36.7324 25.768 35.1419 24.6994 33.104C23.6307 31.0661 23.0964 28.7549 23.0964 26.1703C23.0964 23.5856 23.6307 21.2744 24.6994 19.2365C25.768 17.1987 27.2467 15.6206 29.1355 14.5022C31.0491 13.359 33.2112 12.7874 35.6219 12.7874C38.0325 12.7874 40.1822 13.359 42.071 14.5022C43.9846 15.6206 45.4757 17.1987 46.5443 19.2365C47.613 21.2744 48.1473 23.5856 48.1473 26.1703C48.1473 28.7549 47.613 31.0661 46.5443 33.104C45.4757 35.1419 43.9846 36.7324 42.071 37.8756C40.1822 38.9939 38.0325 39.5531 35.6219 39.5531ZM35.6219 38.8821C37.8088 38.8821 39.797 38.3726 41.5864 37.3537C43.3757 36.3099 44.7798 34.8312 45.7988 32.9176C46.8426 30.9791 47.3645 28.73 47.3645 26.1703C47.3645 23.6105 46.8426 21.3738 45.7988 19.4602C44.7798 17.5217 43.3757 16.043 41.5864 15.0241C39.797 13.9803 37.8088 13.4584 35.6219 13.4584C33.4349 13.4584 31.4467 13.9803 29.6574 15.0241C27.868 16.043 26.4514 17.5217 25.4077 19.4602C24.3887 21.3738 23.8793 23.6105 23.8793 26.1703C23.8793 28.73 24.3887 30.9791 25.4077 32.9176C26.4514 34.8312 27.868 36.3099 29.6574 37.3537C31.4467 38.3726 33.4349 38.8821 35.6219 38.8821ZM65.1458 39.5531C62.7352 39.5531 60.573 38.9939 58.6594 37.8756C56.7707 36.7324 55.292 35.1419 54.2233 33.104C53.1547 31.0661 52.6204 28.7549 52.6204 26.1703C52.6204 23.5856 53.1547 21.2744 54.2233 19.2365C55.292 17.1987 56.7707 15.6206 58.6594 14.5022C60.573 13.359 62.7352 12.7874 65.1458 12.7874C67.5565 12.7874 69.7062 13.359 71.5949 14.5022C73.5086 15.6206 74.9997 17.1987 76.0683 19.2365C77.137 21.2744 77.6713 23.5856 77.6713 26.1703C77.6713 28.7549 77.137 31.0661 76.0683 33.104C74.9997 35.1419 73.5086 36.7324 71.5949 37.8756C69.7062 38.9939 67.5565 39.5531 65.1458 39.5531ZM65.1458 38.8821C67.3328 38.8821 69.321 38.3726 71.1103 37.3537C72.8997 36.3099 74.3038 34.8312 75.3228 32.9176C76.3665 30.9791 76.8884 28.73 76.8884 26.1703C76.8884 23.6105 76.3665 21.3738 75.3228 19.4602C74.3038 17.5217 72.8997 16.043 71.1103 15.0241C69.321 13.9803 67.3328 13.4584 65.1458 13.4584C62.9588 13.4584 60.9707 13.9803 59.1813 15.0241C57.392 16.043 55.9754 17.5217 54.9316 19.4602C53.9127 21.3738 53.4032 23.6105 53.4032 26.1703C53.4032 28.73 53.9127 30.9791 54.9316 32.9176C55.9754 34.8312 57.392 36.3099 59.1813 37.3537C60.9707 38.3726 62.9588 38.8821 65.1458 38.8821ZM84.2692 26.133L97.5775 39.2549H96.571L83.8219 26.7294V39.2549H83.0763V13.0111H83.8219V25.6111L96.571 13.0111H97.5775L84.2692 26.133ZM102.242 13.0111V39.2549H101.497V13.0111H102.242ZM121.419 13.0111V13.6821H109.341V25.7975H120.301V26.4685H109.341V39.2549H108.596V13.0111H121.419ZM141.093 13.0111L132.966 28.2578V39.2549H132.221V28.2578L124.02 13.0111H124.914L132.556 27.4377L140.198 13.0111H141.093Z" fill="black"/>
</svg>
