<svg width="35" height="36" viewBox="0 0 35 36" fill="none" xmlns="http://www.w3.org/2000/svg">
<path d="M30.1123 11.4824C29.8844 11.4368 29.7135 11.414 29.5996 11.414C28.7565 11.414 28.0273 11.6991 27.4121 12.2693C26.0221 11.6535 24.7233 11.1517 23.5156 10.7639C21.5332 10.1253 19.4596 9.60068 17.2949 9.19013C17.0898 8.64272 16.7822 8.18654 16.3721 7.8216C16.9417 5.13017 17.7051 2.68964 18.6621 0.5C21.5332 0.705279 24.1707 1.5378 26.5747 2.99756C28.9787 4.45731 30.9212 6.37325 32.4023 8.74536C31.5592 9.65771 30.7959 10.5701 30.1123 11.4824ZM14.2529 7.0347C13.6605 7.0347 13.1022 7.19436 12.5781 7.51369C10.7324 6.14516 8.87533 4.98192 7.00684 4.02395C9.83236 1.87993 12.9997 0.705279 16.5088 0.5C15.6201 2.48436 14.9023 4.66259 14.3555 7.0347H14.2529ZM2.39258 9.15591C3.16732 7.85582 4.14714 6.62414 5.33203 5.4609C6.88151 6.2592 8.48796 7.23998 10.1514 8.40323C7.21191 8.3348 4.62565 8.5857 2.39258 9.15591ZM10.9717 10.5244C11.0173 11.2315 11.2622 11.853 11.7065 12.3891C12.1509 12.9251 12.7035 13.2843 13.3643 13.4668C13.2275 15.0634 13.1592 16.5802 13.1592 18.0171C13.1592 19.0207 13.1934 20.1725 13.2617 21.4726C12.7604 21.6323 12.3161 21.906 11.9287 22.2937C10.6982 21.8148 9.51335 21.2674 8.37402 20.6515C8.62467 20.1497 8.75 19.6365 8.75 19.1119C8.75 18.1996 8.43099 17.4241 7.79297 16.7854C7.15495 16.1468 6.38021 15.8275 5.46875 15.8275C4.46615 15.8275 3.63444 16.2152 2.97363 16.9907C2.0166 16.124 1.16211 15.223 0.410156 14.2879C0.615234 13.3071 0.922852 12.3377 1.33301 11.3798C4.11296 10.6043 7.32585 10.3192 10.9717 10.5244ZM2.22168 19.3856C2.29004 20.2296 2.63753 20.9423 3.26416 21.5239C3.89079 22.1056 4.62565 22.3964 5.46875 22.3964C5.7194 22.3964 5.99284 22.3508 6.28906 22.2595C7.7474 23.1035 9.30827 23.8333 10.9717 24.4492V24.586C10.9717 25.4756 11.2736 26.234 11.8774 26.8612C12.4813 27.4884 13.2275 27.8249 14.1162 27.8705C14.6859 30.6531 15.4834 33.1963 16.5088 35.5C14.2301 35.3631 12.0768 34.81 10.0488 33.8407C8.02083 32.8713 6.27197 31.6111 4.80225 30.0601C3.33252 28.5091 2.16471 26.6844 1.29883 24.586C0.432943 22.4876 0 20.298 0 18.0171C0 17.9943 0.0113932 17.6864 0.0341797 17.0934C0.672201 17.8917 1.40137 18.6558 2.22168 19.3856ZM17.124 26.1256C18.7646 26.4221 20.4167 26.616 22.0801 26.7072C22.2396 27.1634 22.4902 27.5854 22.832 27.9731C22.3079 30.368 21.9889 32.6945 21.875 34.9526C20.7129 35.2491 19.6419 35.4316 18.6621 35.5C17.5911 33.0595 16.7594 30.2996 16.167 27.2204C16.5771 26.9467 16.8962 26.5818 17.124 26.1256ZM27.7197 27.7678C28.016 27.4029 28.221 27.0152 28.335 26.6046C29.9984 26.4677 31.6048 26.2511 33.1543 25.9545C32.0605 28.0986 30.5566 29.9575 28.6426 31.5313C28.4375 30.3452 28.1299 29.0907 27.7197 27.7678ZM22.1484 24.5176C20.5534 24.4264 18.9811 24.2211 17.4316 23.9018C17.181 22.7613 16.5316 21.9744 15.4834 21.5411C15.3923 20.1953 15.3467 19.0207 15.3467 18.0171C15.3467 16.5117 15.415 14.9493 15.5518 13.3299C15.5973 13.3299 15.6543 13.3071 15.7227 13.2615C15.791 13.2159 15.8366 13.1931 15.8594 13.1931C16.748 14.0598 17.5228 14.8581 18.1836 15.588C20.166 17.7776 21.8522 20.2638 23.2422 23.0464C22.7409 23.4342 22.3763 23.9246 22.1484 24.5176ZM25.1904 28.9653C25.236 28.9653 25.3613 28.9539 25.5664 28.9311C25.9538 30.3224 26.2386 31.7023 26.4209 33.0709C25.7601 33.4586 24.9626 33.8464 24.0283 34.2341C24.1878 32.455 24.4613 30.6874 24.8486 28.9311C25.0309 28.9539 25.1449 28.9653 25.1904 28.9653ZM25.0195 20.7884C24.9967 20.834 24.9683 20.9024 24.9341 20.9936C24.8999 21.0849 24.8714 21.1533 24.8486 21.1989C23.4131 18.5987 21.7269 16.238 19.79 14.1168C19.0837 13.3185 18.2406 12.4518 17.2607 11.5166C17.2835 11.5166 17.3006 11.4995 17.312 11.4653L17.3291 11.414C19.2432 11.8017 21.0775 12.2807 22.832 12.8509C23.903 13.1931 25.0765 13.6492 26.3525 14.2195C26.307 14.4475 26.2842 14.6186 26.2842 14.7326C26.2842 15.4169 26.4893 16.0442 26.8994 16.6144C26.1475 18.0513 25.5208 19.4427 25.0195 20.7884ZM26.626 22.7727C26.8994 21.9744 27.0361 21.5639 27.0361 21.5411C27.4919 20.4006 28.0615 19.1804 28.7451 17.8803C29.0413 17.9715 29.3262 18.0171 29.5996 18.0171C30.3743 18.0171 31.0693 17.7548 31.6846 17.2302C32.8011 18.0057 33.8949 18.8724 34.9658 19.8304C34.8291 21.1305 34.5557 22.385 34.1455 23.5938C32.277 23.9816 30.306 24.2553 28.2324 24.415C27.9362 23.6851 27.4007 23.1377 26.626 22.7727ZM32.8809 14.6984C32.8809 13.9457 32.6302 13.2615 32.1289 12.6456C32.6074 12.0298 33.0859 11.471 33.5645 10.9692C34.3848 12.8395 34.8633 14.7669 35 16.7512C34.248 16.181 33.5189 15.6678 32.8125 15.2116C32.8581 15.0064 32.8809 14.8353 32.8809 14.6984Z" fill="black"/>
</svg>
