<svg width="33" height="33" viewBox="0 0 33 33" fill="none" xmlns="http://www.w3.org/2000/svg">
<path d="M16.3853 11.5501C13.4474 11.5501 11.0498 13.9478 11.0498 16.8857C11.0498 19.8237 13.4474 22.2213 16.3853 22.2213C19.3233 22.2213 21.7209 19.8237 21.7209 16.8857C21.7209 13.9478 19.3233 11.5501 16.3853 11.5501ZM32.3879 16.8857C32.3879 14.6762 32.4079 12.4868 32.2838 10.2813C32.1597 7.71955 31.5753 5.44601 29.7021 3.57275C27.8249 1.69548 25.5554 1.11509 22.9937 0.991003C20.7842 0.866919 18.5948 0.886933 16.3893 0.886933C14.1799 0.886933 11.9905 0.866919 9.78501 0.991003C7.22333 1.11509 4.94983 1.69948 3.0766 3.57275C1.19937 5.45002 0.618989 7.71955 0.494907 10.2813C0.370826 12.4908 0.390839 14.6803 0.390839 16.8857C0.390839 19.0912 0.370826 21.2847 0.494907 23.4902C0.618989 26.0519 1.20337 28.3255 3.0766 30.1987C4.95384 32.076 7.22333 32.6564 9.78501 32.7805C11.9945 32.9046 14.1839 32.8846 16.3893 32.8846C18.5988 32.8846 20.7882 32.9046 22.9937 32.7805C25.5554 32.6564 27.8289 32.072 29.7021 30.1987C31.5793 28.3215 32.1597 26.0519 32.2838 23.4902C32.4119 21.2847 32.3879 19.0952 32.3879 16.8857ZM16.3853 25.0953C11.8424 25.0953 8.17595 21.4288 8.17595 16.8857C8.17595 12.3427 11.8424 8.6762 16.3853 8.6762C20.9283 8.6762 24.5947 12.3427 24.5947 16.8857C24.5947 21.4288 20.9283 25.0953 16.3853 25.0953ZM24.931 10.2573C23.8703 10.2573 23.0137 9.40069 23.0137 8.33997C23.0137 7.27925 23.8703 6.42267 24.931 6.42267C25.9917 6.42267 26.8482 7.27925 26.8482 8.33997C26.8485 8.59184 26.7992 8.8413 26.7029 9.07406C26.6067 9.30682 26.4655 9.51831 26.2874 9.69641C26.1093 9.87451 25.8978 10.0157 25.665 10.112C25.4323 10.2082 25.1828 10.2576 24.931 10.2573Z" fill="black"/>
</svg>
