<svg width="40" height="40" viewBox="0 0 40 40" fill="none" xmlns="http://www.w3.org/2000/svg">
<path d="M38 13.2703V28.6208C38 30.0488 37.4074 31.4184 36.3525 32.4283C35.2976 33.4381 33.8668 34.0054 32.375 34.0054H7.625C6.13316 34.0054 4.70242 33.4381 3.64752 32.4283C2.59263 31.4184 2 30.0488 2 28.6208V13.2703L19.4285 23.0875C19.6016 23.1853 19.799 23.2368 20 23.2368C20.201 23.2368 20.3984 23.1853 20.5715 23.0875L38 13.2703ZM32.375 6.00537C33.7591 6.00516 35.0947 6.49345 36.1262 7.37681C37.1578 8.26017 37.8129 9.4766 37.9663 10.7934L20 20.91L2.03375 10.7934C2.18711 9.4766 2.84223 8.26017 3.87379 7.37681C4.90535 6.49345 6.24092 6.00516 7.625 6.00537H32.375Z" fill="black"/>
</svg>
