<svg width="20" height="20" viewBox="0 0 20 20" fill="none" xmlns="http://www.w3.org/2000/svg">
<path d="M1.5 11.5628L11.5 11.5639C11.8729 11.5639 12.2324 11.7086 12.5084 11.9697C12.7844 12.2309 12.9572 12.5897 12.993 12.9764L13 13.1253V15.2087C12.999 18.8545 9.284 19.8962 6.5 19.8962C3.778 19.8962 0.165 18.9003 0.00500011 15.4482L0 15.2087V13.1253C1.78986e-05 12.7369 0.13892 12.3624 0.389619 12.0749C0.640318 11.7874 0.98484 11.6074 1.356 11.5701L1.5 11.5628ZM13.488 11.5628H18.5C18.8727 11.5628 19.2321 11.7074 19.5081 11.9683C19.7841 12.2292 19.957 12.5878 19.993 12.9743L20 13.1253V14.6878C19.999 17.8774 17.142 18.8545 15 18.8545C14.2745 18.8563 13.5529 18.7432 12.86 18.5191C13.513 17.7378 13.936 16.7451 13.993 15.5003L14 15.2087V13.1253C14 12.6107 13.85 12.1347 13.601 11.7316L13.488 11.5628H18.5H13.488ZM6.5 0.104492C7.69347 0.104492 8.83807 0.598352 9.68198 1.47743C10.5259 2.35651 11 3.54879 11 4.79199C11 6.03519 10.5259 7.22748 9.68198 8.10655C8.83807 8.98563 7.69347 9.47949 6.5 9.47949C5.30653 9.47949 4.16193 8.98563 3.31802 8.10655C2.47411 7.22748 2 6.03519 2 4.79199C2 3.54879 2.47411 2.35651 3.31802 1.47743C4.16193 0.598352 5.30653 0.104492 6.5 0.104492ZM15.5 2.18783C16.4283 2.18783 17.3185 2.57194 17.9749 3.25567C18.6313 3.93939 19 4.86672 19 5.83366C19 6.80059 18.6313 7.72793 17.9749 8.41165C17.3185 9.09538 16.4283 9.47949 15.5 9.47949C14.5717 9.47949 13.6815 9.09538 13.0251 8.41165C12.3687 7.72793 12 6.80059 12 5.83366C12 4.86672 12.3687 3.93939 13.0251 3.25567C13.6815 2.57194 14.5717 2.18783 15.5 2.18783Z" fill="black" fill-opacity="0.65"/>
</svg>
